<mxfile host="app.diagrams.net" agent="Mozilla/5.0 (Windows NT 10.0; Win64; x64) AppleWebKit/537.36 (KHTML, like Gecko) Chrome/136.0.0.0 Safari/537.36" version="27.0.9">
  <diagram name="Page-1" id="c37626ed-c26b-45fb-9056-f9ebc6bb27b6">
    <mxGraphModel grid="1" page="1" gridSize="10" guides="1" tooltips="1" connect="1" arrows="1" fold="1" pageScale="1" pageWidth="1100" pageHeight="850" background="none" math="0" shadow="0">
      <root>
        <mxCell id="0" />
        <mxCell id="1" parent="0" />
        <mxCell id="1c7a67bf8fd3230f-49" style="edgeStyle=none;html=1;labelBackgroundColor=none;startFill=0;endArrow=none;endFill=0;strokeWidth=2;fontFamily=Verdana;fontSize=12;entryX=0.5;entryY=0;entryDx=0;entryDy=0;entryPerimeter=0;" edge="1" parent="1" target="1c7a67bf8fd3230f-46">
          <mxGeometry relative="1" as="geometry">
            <mxPoint x="310" y="380" as="sourcePoint" />
          </mxGeometry>
        </mxCell>
        <mxCell id="1c7a67bf8fd3230f-55" style="edgeStyle=none;html=1;labelBackgroundColor=none;startFill=0;endArrow=none;endFill=0;strokeWidth=2;fontFamily=Verdana;fontSize=12;exitX=0.5;exitY=1;exitDx=0;exitDy=0;exitPerimeter=0;" edge="1" parent="1" source="1c7a67bf8fd3230f-46">
          <mxGeometry relative="1" as="geometry">
            <mxPoint x="220" y="600" as="sourcePoint" />
            <mxPoint x="310" y="660" as="targetPoint" />
          </mxGeometry>
        </mxCell>
        <mxCell id="1c7a67bf8fd3230f-46" value="" style="shape=mxgraph.cisco.routers.router;html=1;dashed=0;fillColor=#036897;strokeColor=#ffffff;strokeWidth=2;verticalLabelPosition=bottom;verticalAlign=top;rounded=0;shadow=0;comic=0;fontFamily=Verdana;fontSize=12;" vertex="1" parent="1">
          <mxGeometry x="190" y="492" width="78" height="53" as="geometry" />
        </mxCell>
        <mxCell id="P0-c6NR_3_v5P01_Kzta-1" value="" style="shape=mxgraph.cisco.routers.router;html=1;dashed=0;fillColor=#036897;strokeColor=#ffffff;strokeWidth=2;verticalLabelPosition=bottom;verticalAlign=top;rounded=0;shadow=0;comic=0;fontFamily=Verdana;fontSize=12;" vertex="1" parent="1">
          <mxGeometry x="310" y="350" width="78" height="53" as="geometry" />
        </mxCell>
        <mxCell id="P0-c6NR_3_v5P01_Kzta-2" value="" style="shape=mxgraph.cisco.routers.router;html=1;dashed=0;fillColor=#036897;strokeColor=#ffffff;strokeWidth=2;verticalLabelPosition=bottom;verticalAlign=top;rounded=0;shadow=0;comic=0;fontFamily=Verdana;fontSize=12;" vertex="1" parent="1">
          <mxGeometry x="310" y="630" width="78" height="53" as="geometry" />
        </mxCell>
        <mxCell id="P0-c6NR_3_v5P01_Kzta-3" value="" style="shape=mxgraph.cisco.routers.router;html=1;dashed=0;fillColor=#036897;strokeColor=#ffffff;strokeWidth=2;verticalLabelPosition=bottom;verticalAlign=top;rounded=0;shadow=0;comic=0;fontFamily=Verdana;fontSize=12;" vertex="1" parent="1">
          <mxGeometry x="500" y="350" width="78" height="53" as="geometry" />
        </mxCell>
        <mxCell id="P0-c6NR_3_v5P01_Kzta-4" value="" style="shape=mxgraph.cisco.routers.router;html=1;dashed=0;fillColor=#036897;strokeColor=#ffffff;strokeWidth=2;verticalLabelPosition=bottom;verticalAlign=top;rounded=0;shadow=0;comic=0;fontFamily=Verdana;fontSize=12;" vertex="1" parent="1">
          <mxGeometry x="500" y="630" width="78" height="53" as="geometry" />
        </mxCell>
        <mxCell id="P0-c6NR_3_v5P01_Kzta-5" value="" style="shape=mxgraph.cisco.routers.router;html=1;dashed=0;fillColor=#036897;strokeColor=#ffffff;strokeWidth=2;verticalLabelPosition=bottom;verticalAlign=top;rounded=0;shadow=0;comic=0;fontFamily=Verdana;fontSize=12;" vertex="1" parent="1">
          <mxGeometry x="500" y="492" width="78" height="53" as="geometry" />
        </mxCell>
        <mxCell id="P0-c6NR_3_v5P01_Kzta-6" value="" style="shape=mxgraph.cisco.routers.router;html=1;dashed=0;fillColor=#036897;strokeColor=#ffffff;strokeWidth=2;verticalLabelPosition=bottom;verticalAlign=top;rounded=0;shadow=0;comic=0;fontFamily=Verdana;fontSize=12;" vertex="1" parent="1">
          <mxGeometry x="690" y="350" width="78" height="53" as="geometry" />
        </mxCell>
        <mxCell id="P0-c6NR_3_v5P01_Kzta-7" value="" style="shape=mxgraph.cisco.routers.router;html=1;dashed=0;fillColor=#036897;strokeColor=#ffffff;strokeWidth=2;verticalLabelPosition=bottom;verticalAlign=top;rounded=0;shadow=0;comic=0;fontFamily=Verdana;fontSize=12;" vertex="1" parent="1">
          <mxGeometry x="690" y="630" width="78" height="53" as="geometry" />
        </mxCell>
        <mxCell id="P0-c6NR_3_v5P01_Kzta-8" value="" style="shape=mxgraph.cisco.routers.router;html=1;dashed=0;fillColor=#036897;strokeColor=#ffffff;strokeWidth=2;verticalLabelPosition=bottom;verticalAlign=top;rounded=0;shadow=0;comic=0;fontFamily=Verdana;fontSize=12;" vertex="1" parent="1">
          <mxGeometry x="812" y="492" width="78" height="53" as="geometry" />
        </mxCell>
        <mxCell id="P0-c6NR_3_v5P01_Kzta-9" value="" style="shape=mxgraph.cisco.routers.router;html=1;dashed=0;fillColor=#036897;strokeColor=#ffffff;strokeWidth=2;verticalLabelPosition=bottom;verticalAlign=top;rounded=0;shadow=0;comic=0;fontFamily=Verdana;fontSize=12;" vertex="1" parent="1">
          <mxGeometry x="600" y="219" width="78" height="53" as="geometry" />
        </mxCell>
        <mxCell id="P0-c6NR_3_v5P01_Kzta-11" style="edgeStyle=none;html=1;labelBackgroundColor=none;startFill=0;endArrow=none;endFill=0;strokeWidth=2;fontFamily=Verdana;fontSize=12;entryX=1;entryY=0.5;entryDx=0;entryDy=0;entryPerimeter=0;exitX=0;exitY=0.5;exitDx=0;exitDy=0;exitPerimeter=0;" edge="1" parent="1" source="P0-c6NR_3_v5P01_Kzta-3" target="P0-c6NR_3_v5P01_Kzta-1">
          <mxGeometry relative="1" as="geometry">
            <mxPoint x="320" y="390" as="sourcePoint" />
            <mxPoint x="239" y="502" as="targetPoint" />
          </mxGeometry>
        </mxCell>
        <mxCell id="P0-c6NR_3_v5P01_Kzta-12" style="edgeStyle=none;html=1;labelBackgroundColor=none;startFill=0;endArrow=none;endFill=0;strokeWidth=2;fontFamily=Verdana;fontSize=12;entryX=0.5;entryY=1;entryDx=0;entryDy=0;entryPerimeter=0;exitX=0.5;exitY=0;exitDx=0;exitDy=0;exitPerimeter=0;" edge="1" parent="1" source="P0-c6NR_3_v5P01_Kzta-2" target="P0-c6NR_3_v5P01_Kzta-1">
          <mxGeometry relative="1" as="geometry">
            <mxPoint x="510" y="387" as="sourcePoint" />
            <mxPoint x="398" y="387" as="targetPoint" />
          </mxGeometry>
        </mxCell>
        <mxCell id="P0-c6NR_3_v5P01_Kzta-13" style="edgeStyle=none;html=1;labelBackgroundColor=none;startFill=0;endArrow=none;endFill=0;strokeWidth=2;fontFamily=Verdana;fontSize=12;entryX=0.5;entryY=0;entryDx=0;entryDy=0;entryPerimeter=0;exitX=0.5;exitY=1;exitDx=0;exitDy=0;exitPerimeter=0;" edge="1" parent="1" source="P0-c6NR_3_v5P01_Kzta-3" target="P0-c6NR_3_v5P01_Kzta-5">
          <mxGeometry relative="1" as="geometry">
            <mxPoint x="520" y="397" as="sourcePoint" />
            <mxPoint x="408" y="397" as="targetPoint" />
          </mxGeometry>
        </mxCell>
        <mxCell id="P0-c6NR_3_v5P01_Kzta-14" style="edgeStyle=none;html=1;labelBackgroundColor=none;startFill=0;endArrow=none;endFill=0;strokeWidth=2;fontFamily=Verdana;fontSize=12;entryX=0.5;entryY=0;entryDx=0;entryDy=0;entryPerimeter=0;exitX=0.5;exitY=1;exitDx=0;exitDy=0;exitPerimeter=0;" edge="1" parent="1" source="P0-c6NR_3_v5P01_Kzta-5" target="P0-c6NR_3_v5P01_Kzta-4">
          <mxGeometry relative="1" as="geometry">
            <mxPoint x="530" y="407" as="sourcePoint" />
            <mxPoint x="418" y="407" as="targetPoint" />
          </mxGeometry>
        </mxCell>
        <mxCell id="P0-c6NR_3_v5P01_Kzta-15" style="edgeStyle=none;html=1;labelBackgroundColor=none;startFill=0;endArrow=none;endFill=0;strokeWidth=2;fontFamily=Verdana;fontSize=12;entryX=1;entryY=0.5;entryDx=0;entryDy=0;entryPerimeter=0;exitX=0;exitY=0.5;exitDx=0;exitDy=0;exitPerimeter=0;" edge="1" parent="1" source="P0-c6NR_3_v5P01_Kzta-4" target="P0-c6NR_3_v5P01_Kzta-2">
          <mxGeometry relative="1" as="geometry">
            <mxPoint x="540" y="417" as="sourcePoint" />
            <mxPoint x="428" y="417" as="targetPoint" />
          </mxGeometry>
        </mxCell>
        <mxCell id="P0-c6NR_3_v5P01_Kzta-16" style="edgeStyle=none;html=1;labelBackgroundColor=none;startFill=0;endArrow=none;endFill=0;strokeWidth=2;fontFamily=Verdana;fontSize=12;entryX=1;entryY=0.5;entryDx=0;entryDy=0;entryPerimeter=0;exitX=0;exitY=0.5;exitDx=0;exitDy=0;exitPerimeter=0;" edge="1" parent="1" source="P0-c6NR_3_v5P01_Kzta-7" target="P0-c6NR_3_v5P01_Kzta-4">
          <mxGeometry relative="1" as="geometry">
            <mxPoint x="550" y="427" as="sourcePoint" />
            <mxPoint x="438" y="427" as="targetPoint" />
          </mxGeometry>
        </mxCell>
        <mxCell id="P0-c6NR_3_v5P01_Kzta-17" style="edgeStyle=none;html=1;labelBackgroundColor=none;startFill=0;endArrow=none;endFill=0;strokeWidth=2;fontFamily=Verdana;fontSize=12;entryX=1;entryY=0.5;entryDx=0;entryDy=0;entryPerimeter=0;exitX=0;exitY=0.5;exitDx=0;exitDy=0;exitPerimeter=0;" edge="1" parent="1" source="P0-c6NR_3_v5P01_Kzta-6" target="P0-c6NR_3_v5P01_Kzta-3">
          <mxGeometry relative="1" as="geometry">
            <mxPoint x="560" y="437" as="sourcePoint" />
            <mxPoint x="448" y="437" as="targetPoint" />
          </mxGeometry>
        </mxCell>
        <mxCell id="P0-c6NR_3_v5P01_Kzta-18" style="edgeStyle=none;html=1;labelBackgroundColor=none;startFill=0;endArrow=none;endFill=0;strokeWidth=2;fontFamily=Verdana;fontSize=12;entryX=0.5;entryY=1;entryDx=0;entryDy=0;entryPerimeter=0;exitX=0.5;exitY=0;exitDx=0;exitDy=0;exitPerimeter=0;" edge="1" parent="1" source="P0-c6NR_3_v5P01_Kzta-7" target="P0-c6NR_3_v5P01_Kzta-6">
          <mxGeometry relative="1" as="geometry">
            <mxPoint x="570" y="447" as="sourcePoint" />
            <mxPoint x="458" y="447" as="targetPoint" />
          </mxGeometry>
        </mxCell>
        <mxCell id="P0-c6NR_3_v5P01_Kzta-19" style="edgeStyle=none;html=1;labelBackgroundColor=none;startFill=0;endArrow=none;endFill=0;strokeWidth=2;fontFamily=Verdana;fontSize=12;entryX=1;entryY=0.5;entryDx=0;entryDy=0;entryPerimeter=0;exitX=0.5;exitY=1;exitDx=0;exitDy=0;exitPerimeter=0;" edge="1" parent="1" source="P0-c6NR_3_v5P01_Kzta-8" target="P0-c6NR_3_v5P01_Kzta-7">
          <mxGeometry relative="1" as="geometry">
            <mxPoint x="580" y="457" as="sourcePoint" />
            <mxPoint x="468" y="457" as="targetPoint" />
          </mxGeometry>
        </mxCell>
        <mxCell id="P0-c6NR_3_v5P01_Kzta-20" style="edgeStyle=none;html=1;labelBackgroundColor=none;startFill=0;endArrow=none;endFill=0;strokeWidth=2;fontFamily=Verdana;fontSize=12;entryX=0.5;entryY=0;entryDx=0;entryDy=0;entryPerimeter=0;exitX=1;exitY=0.5;exitDx=0;exitDy=0;exitPerimeter=0;" edge="1" parent="1" source="P0-c6NR_3_v5P01_Kzta-6" target="P0-c6NR_3_v5P01_Kzta-8">
          <mxGeometry relative="1" as="geometry">
            <mxPoint x="590" y="467" as="sourcePoint" />
            <mxPoint x="478" y="467" as="targetPoint" />
          </mxGeometry>
        </mxCell>
        <mxCell id="P0-c6NR_3_v5P01_Kzta-21" style="edgeStyle=none;html=1;labelBackgroundColor=none;startFill=0;endArrow=none;endFill=0;strokeWidth=2;fontFamily=Verdana;fontSize=12;entryX=0.5;entryY=0;entryDx=0;entryDy=0;entryPerimeter=0;exitX=0;exitY=0.5;exitDx=0;exitDy=0;exitPerimeter=0;" edge="1" parent="1" source="P0-c6NR_3_v5P01_Kzta-9" target="P0-c6NR_3_v5P01_Kzta-3">
          <mxGeometry relative="1" as="geometry">
            <mxPoint x="600" y="477" as="sourcePoint" />
            <mxPoint x="488" y="477" as="targetPoint" />
          </mxGeometry>
        </mxCell>
        <mxCell id="P0-c6NR_3_v5P01_Kzta-22" style="edgeStyle=none;html=1;labelBackgroundColor=none;startFill=0;endArrow=none;endFill=0;strokeWidth=2;fontFamily=Verdana;fontSize=12;entryX=1;entryY=0.5;entryDx=0;entryDy=0;entryPerimeter=0;exitX=0.5;exitY=0;exitDx=0;exitDy=0;exitPerimeter=0;" edge="1" parent="1" source="P0-c6NR_3_v5P01_Kzta-6" target="P0-c6NR_3_v5P01_Kzta-9">
          <mxGeometry relative="1" as="geometry">
            <mxPoint x="610" y="487" as="sourcePoint" />
            <mxPoint x="498" y="487" as="targetPoint" />
          </mxGeometry>
        </mxCell>
        <mxCell id="P0-c6NR_3_v5P01_Kzta-24" value="" style="shape=mxgraph.cisco.computers_and_peripherals.terminal;sketch=0;html=1;pointerEvents=1;dashed=0;fillColor=#036897;strokeColor=#ffffff;strokeWidth=2;verticalLabelPosition=bottom;verticalAlign=top;align=center;outlineConnect=0;" vertex="1" parent="1">
          <mxGeometry x="-130" y="479.5" width="90" height="78" as="geometry" />
        </mxCell>
        <mxCell id="P0-c6NR_3_v5P01_Kzta-27" value="" style="shape=mxgraph.cisco.computers_and_peripherals.terminal;sketch=0;html=1;pointerEvents=1;dashed=0;fillColor=#036897;strokeColor=#ffffff;strokeWidth=2;verticalLabelPosition=bottom;verticalAlign=top;align=center;outlineConnect=0;" vertex="1" parent="1">
          <mxGeometry x="1089" y="479" width="90" height="78" as="geometry" />
        </mxCell>
        <mxCell id="P0-c6NR_3_v5P01_Kzta-29" style="edgeStyle=none;html=1;labelBackgroundColor=none;startFill=0;endArrow=none;endFill=0;strokeWidth=2;fontFamily=Verdana;fontSize=12;exitX=0;exitY=0.5;exitDx=0;exitDy=0;exitPerimeter=0;entryX=1;entryY=0.5;entryDx=0;entryDy=0;entryPerimeter=0;" edge="1" parent="1" source="1c7a67bf8fd3230f-46" target="1I2WtKxNSLCedIirLF0q-9">
          <mxGeometry relative="1" as="geometry">
            <mxPoint x="320" y="390" as="sourcePoint" />
            <mxPoint x="140" y="520" as="targetPoint" />
          </mxGeometry>
        </mxCell>
        <mxCell id="P0-c6NR_3_v5P01_Kzta-32" style="edgeStyle=none;html=1;labelBackgroundColor=none;startFill=0;endArrow=none;endFill=0;strokeWidth=2;fontFamily=Verdana;fontSize=12;entryX=0.5;entryY=0;entryDx=0;entryDy=0;entryPerimeter=0;exitX=0.5;exitY=1;exitDx=0;exitDy=0;exitPerimeter=0;" edge="1" parent="1" source="1I2WtKxNSLCedIirLF0q-26" target="P0-c6NR_3_v5P01_Kzta-9">
          <mxGeometry relative="1" as="geometry">
            <mxPoint x="639" y="118" as="sourcePoint" />
            <mxPoint x="259" y="522" as="targetPoint" />
          </mxGeometry>
        </mxCell>
        <mxCell id="P0-c6NR_3_v5P01_Kzta-33" value="&lt;font&gt;eth3&lt;/font&gt;" style="text;html=1;align=center;verticalAlign=middle;whiteSpace=wrap;rounded=0;" vertex="1" parent="1">
          <mxGeometry x="380" y="350" width="60" height="30" as="geometry" />
        </mxCell>
        <mxCell id="I27MwGRCCeynss-tv7QH-2" value="&lt;font&gt;eth1&lt;/font&gt;" style="text;html=1;align=center;verticalAlign=middle;whiteSpace=wrap;rounded=0;" vertex="1" parent="1">
          <mxGeometry x="4" y="496.5" width="60" height="30" as="geometry" />
        </mxCell>
        <mxCell id="I27MwGRCCeynss-tv7QH-3" value="&lt;font&gt;eth2&lt;/font&gt;" style="text;html=1;align=center;verticalAlign=middle;whiteSpace=wrap;rounded=0;rotation=90;" vertex="1" parent="1">
          <mxGeometry x="330" y="590" width="60" height="30" as="geometry" />
        </mxCell>
        <mxCell id="I27MwGRCCeynss-tv7QH-4" value="&lt;font&gt;eth1&lt;/font&gt;" style="text;html=1;align=center;verticalAlign=middle;whiteSpace=wrap;rounded=0;" vertex="1" parent="1">
          <mxGeometry x="440" y="350" width="60" height="30" as="geometry" />
        </mxCell>
        <mxCell id="I27MwGRCCeynss-tv7QH-5" value="&lt;font&gt;eth1&lt;/font&gt;" style="text;html=1;align=center;verticalAlign=middle;whiteSpace=wrap;rounded=0;rotation=90;" vertex="1" parent="1">
          <mxGeometry x="518" y="462" width="60" height="30" as="geometry" />
        </mxCell>
        <mxCell id="I27MwGRCCeynss-tv7QH-6" value="&lt;font&gt;eth2&lt;/font&gt;" style="text;html=1;align=center;verticalAlign=middle;whiteSpace=wrap;rounded=0;rotation=-60;" vertex="1" parent="1">
          <mxGeometry x="550" y="242" width="60" height="30" as="geometry" />
        </mxCell>
        <mxCell id="I27MwGRCCeynss-tv7QH-7" value="&lt;font&gt;eth1&lt;/font&gt;" style="text;html=1;align=center;verticalAlign=middle;whiteSpace=wrap;rounded=0;" vertex="1" parent="1">
          <mxGeometry x="450" y="630" width="60" height="30" as="geometry" />
        </mxCell>
        <mxCell id="I27MwGRCCeynss-tv7QH-8" value="&lt;font&gt;eth2&lt;/font&gt;" style="text;html=1;align=center;verticalAlign=middle;whiteSpace=wrap;rounded=0;rotation=90;" vertex="1" parent="1">
          <mxGeometry x="710" y="590" width="60" height="30" as="geometry" />
        </mxCell>
        <mxCell id="I27MwGRCCeynss-tv7QH-9" value="&lt;div&gt;&lt;font&gt;eth2&lt;/font&gt;&lt;/div&gt;" style="text;html=1;align=center;verticalAlign=middle;whiteSpace=wrap;rounded=0;rotation=60;" vertex="1" parent="1">
          <mxGeometry x="821" y="460" width="60" height="30" as="geometry" />
        </mxCell>
        <mxCell id="I27MwGRCCeynss-tv7QH-10" value="&lt;font&gt;eth1&lt;/font&gt;" style="text;html=1;align=center;verticalAlign=middle;whiteSpace=wrap;rounded=0;" vertex="1" parent="1">
          <mxGeometry x="1029" y="496" width="60" height="30" as="geometry" />
        </mxCell>
        <mxCell id="I27MwGRCCeynss-tv7QH-13" value="&lt;font&gt;eth1&lt;/font&gt;" style="text;html=1;align=center;verticalAlign=middle;whiteSpace=wrap;rounded=0;rotation=90;" vertex="1" parent="1">
          <mxGeometry x="618" y="130" width="60" height="30" as="geometry" />
        </mxCell>
        <mxCell id="I27MwGRCCeynss-tv7QH-14" value="&lt;font&gt;eth3&lt;/font&gt;" style="text;html=1;align=center;verticalAlign=middle;whiteSpace=wrap;rounded=0;" vertex="1" parent="1">
          <mxGeometry x="640" y="350" width="60" height="30" as="geometry" />
        </mxCell>
        <mxCell id="I27MwGRCCeynss-tv7QH-15" value="&lt;font&gt;eth2&lt;/font&gt;" style="text;html=1;align=center;verticalAlign=middle;whiteSpace=wrap;rounded=0;rotation=90;" vertex="1" parent="1">
          <mxGeometry x="330" y="410" width="60" height="30" as="geometry" />
        </mxCell>
        <mxCell id="I27MwGRCCeynss-tv7QH-16" value="&lt;font&gt;eth3&lt;/font&gt;" style="text;html=1;align=center;verticalAlign=middle;whiteSpace=wrap;rounded=0;" vertex="1" parent="1">
          <mxGeometry x="370" y="630" width="60" height="30" as="geometry" />
        </mxCell>
        <mxCell id="I27MwGRCCeynss-tv7QH-22" value="&lt;font&gt;eth2&lt;/font&gt;" style="text;html=1;align=center;verticalAlign=middle;whiteSpace=wrap;rounded=0;rotation=90;" vertex="1" parent="1">
          <mxGeometry x="518" y="590" width="60" height="30" as="geometry" />
        </mxCell>
        <mxCell id="I27MwGRCCeynss-tv7QH-23" value="&lt;font&gt;eth3&lt;/font&gt;" style="text;html=1;align=center;verticalAlign=middle;whiteSpace=wrap;rounded=0;" vertex="1" parent="1">
          <mxGeometry x="564" y="350" width="60" height="30" as="geometry" />
        </mxCell>
        <mxCell id="I27MwGRCCeynss-tv7QH-26" value="&lt;font&gt;eth2&lt;/font&gt;" style="text;html=1;align=center;verticalAlign=middle;whiteSpace=wrap;rounded=0;rotation=90;" vertex="1" parent="1">
          <mxGeometry x="710" y="410" width="60" height="30" as="geometry" />
        </mxCell>
        <mxCell id="I27MwGRCCeynss-tv7QH-27" value="&lt;font&gt;eth3&lt;/font&gt;" style="text;html=1;align=center;verticalAlign=middle;whiteSpace=wrap;rounded=0;" vertex="1" parent="1">
          <mxGeometry x="640" y="630" width="60" height="30" as="geometry" />
        </mxCell>
        <mxCell id="I27MwGRCCeynss-tv7QH-28" value="&lt;div&gt;&lt;font&gt;eth3&lt;/font&gt;&lt;/div&gt;" style="text;html=1;align=center;verticalAlign=middle;whiteSpace=wrap;rounded=0;rotation=56;" vertex="1" parent="1">
          <mxGeometry x="220" y="544.5" width="60" height="30" as="geometry" />
        </mxCell>
        <mxCell id="I27MwGRCCeynss-tv7QH-29" value="&lt;font&gt;eth3&lt;/font&gt;" style="text;html=1;align=center;verticalAlign=middle;whiteSpace=wrap;rounded=0;rotation=-45;" vertex="1" parent="1">
          <mxGeometry x="800" y="544.5" width="60" height="30" as="geometry" />
        </mxCell>
        <mxCell id="I27MwGRCCeynss-tv7QH-30" value="&lt;font&gt;eth2&lt;/font&gt;" style="text;html=1;align=center;verticalAlign=middle;whiteSpace=wrap;rounded=0;rotation=90;" vertex="1" parent="1">
          <mxGeometry x="518" y="550" width="60" height="30" as="geometry" />
        </mxCell>
        <mxCell id="I27MwGRCCeynss-tv7QH-31" value="&lt;font&gt;eth3&lt;/font&gt;" style="text;html=1;align=center;verticalAlign=middle;whiteSpace=wrap;rounded=0;rotation=60;" vertex="1" parent="1">
          <mxGeometry x="670" y="242" width="60" height="30" as="geometry" />
        </mxCell>
        <mxCell id="I27MwGRCCeynss-tv7QH-32" value="&lt;div&gt;&lt;font&gt;eth1&lt;/font&gt;&lt;/div&gt;" style="text;html=1;align=center;verticalAlign=middle;whiteSpace=wrap;rounded=0;rotation=0;" vertex="1" parent="1">
          <mxGeometry x="148" y="492" width="60" height="30" as="geometry" />
        </mxCell>
        <mxCell id="I27MwGRCCeynss-tv7QH-34" value="&lt;font&gt;eth1&lt;/font&gt;" style="text;html=1;align=center;verticalAlign=middle;whiteSpace=wrap;rounded=0;rotation=0;" vertex="1" parent="1">
          <mxGeometry x="873" y="492" width="60" height="30" as="geometry" />
        </mxCell>
        <mxCell id="I27MwGRCCeynss-tv7QH-35" value="&lt;font&gt;eth1&lt;/font&gt;" style="text;html=1;align=center;verticalAlign=middle;whiteSpace=wrap;rounded=0;rotation=90;" vertex="1" parent="1">
          <mxGeometry x="618" y="189" width="60" height="30" as="geometry" />
        </mxCell>
        <mxCell id="I27MwGRCCeynss-tv7QH-38" value="&lt;div&gt;&lt;font&gt;eth1&lt;/font&gt;&lt;/div&gt;" style="text;html=1;align=center;verticalAlign=middle;whiteSpace=wrap;rounded=0;rotation=60;" vertex="1" parent="1">
          <mxGeometry x="270" y="620" width="60" height="30" as="geometry" />
        </mxCell>
        <mxCell id="I27MwGRCCeynss-tv7QH-42" value="&lt;font&gt;eth1&lt;/font&gt;" style="text;html=1;align=center;verticalAlign=middle;whiteSpace=wrap;rounded=0;rotation=-45;" vertex="1" parent="1">
          <mxGeometry x="750" y="615" width="60" height="30" as="geometry" />
        </mxCell>
        <mxCell id="I27MwGRCCeynss-tv7QH-44" value="&lt;font&gt;eth1&lt;/font&gt;" style="text;html=1;align=center;verticalAlign=middle;whiteSpace=wrap;rounded=0;rotation=60;" vertex="1" parent="1">
          <mxGeometry x="752" y="361.5" width="60" height="30" as="geometry" />
        </mxCell>
        <mxCell id="I27MwGRCCeynss-tv7QH-45" value="&lt;font&gt;eth1&lt;/font&gt;" style="text;html=1;align=center;verticalAlign=middle;whiteSpace=wrap;rounded=0;rotation=-50;" vertex="1" parent="1">
          <mxGeometry x="268" y="370" width="60" height="30" as="geometry" />
        </mxCell>
        <mxCell id="I27MwGRCCeynss-tv7QH-46" value="&lt;div&gt;&lt;font&gt;eth2&lt;/font&gt;&lt;/div&gt;&lt;div&gt;&lt;font&gt;&lt;br&gt;&lt;/font&gt;&lt;/div&gt;" style="text;html=1;align=center;verticalAlign=middle;whiteSpace=wrap;rounded=0;rotation=-50;" vertex="1" parent="1">
          <mxGeometry x="199" y="460" width="60" height="30" as="geometry" />
        </mxCell>
        <mxCell id="I27MwGRCCeynss-tv7QH-47" value="&lt;div&gt;&lt;font&gt;eth2&lt;/font&gt;&lt;/div&gt;" style="text;html=1;align=center;verticalAlign=middle;whiteSpace=wrap;rounded=0;rotation=90;" vertex="1" parent="1">
          <mxGeometry x="520" y="403" width="60" height="30" as="geometry" />
        </mxCell>
        <mxCell id="I27MwGRCCeynss-tv7QH-48" value="&lt;font&gt;eth4&lt;/font&gt;" style="text;html=1;align=center;verticalAlign=middle;whiteSpace=wrap;rounded=0;rotation=-60;" vertex="1" parent="1">
          <mxGeometry x="510" y="320" width="60" height="30" as="geometry" />
        </mxCell>
        <mxCell id="I27MwGRCCeynss-tv7QH-50" value="&lt;font&gt;eth4&lt;/font&gt;" style="text;html=1;align=center;verticalAlign=middle;whiteSpace=wrap;rounded=0;rotation=60;" vertex="1" parent="1">
          <mxGeometry x="697" y="311" width="60" height="30" as="geometry" />
        </mxCell>
        <mxCell id="I27MwGRCCeynss-tv7QH-51" value="&lt;h3&gt;&lt;font style=&quot;font-size: 24px; background-color: rgb(0, 0, 0);&quot; color=&quot;#ffffff&quot;&gt;r1&lt;/font&gt;&lt;/h3&gt;" style="text;html=1;align=center;verticalAlign=middle;whiteSpace=wrap;rounded=0;" vertex="1" parent="1">
          <mxGeometry x="294" y="347" width="110" height="63" as="geometry" />
        </mxCell>
        <mxCell id="I27MwGRCCeynss-tv7QH-54" value="&lt;h3&gt;&lt;font style=&quot;background-color: rgb(0, 0, 0); font-size: 19px;&quot; color=&quot;#ffffff&quot;&gt;hupf-h1&lt;/font&gt;&lt;/h3&gt;" style="text;html=1;align=center;verticalAlign=middle;whiteSpace=wrap;rounded=0;" vertex="1" parent="1">
          <mxGeometry x="1100" y="482" width="70" height="58" as="geometry" />
        </mxCell>
        <mxCell id="I27MwGRCCeynss-tv7QH-55" value="&lt;h3&gt;&lt;font style=&quot;font-size: 24px; background-color: rgb(0, 0, 0);&quot; color=&quot;#ffffff&quot;&gt;rg&lt;/font&gt;&lt;/h3&gt;" style="text;html=1;align=center;verticalAlign=middle;whiteSpace=wrap;rounded=0;" vertex="1" parent="1">
          <mxGeometry x="174" y="486.5" width="110" height="63" as="geometry" />
        </mxCell>
        <mxCell id="I27MwGRCCeynss-tv7QH-56" value="&lt;h3&gt;&lt;font style=&quot;font-size: 24px; background-color: rgb(0, 0, 0);&quot; color=&quot;#ffffff&quot;&gt;r4&lt;/font&gt;&lt;/h3&gt;" style="text;html=1;align=center;verticalAlign=middle;whiteSpace=wrap;rounded=0;" vertex="1" parent="1">
          <mxGeometry x="294" y="625" width="110" height="63" as="geometry" />
        </mxCell>
        <mxCell id="I27MwGRCCeynss-tv7QH-57" value="&lt;h3&gt;&lt;font style=&quot;font-size: 24px; background-color: rgb(0, 0, 0);&quot; color=&quot;#ffffff&quot;&gt;r2&lt;/font&gt;&lt;/h3&gt;" style="text;html=1;align=center;verticalAlign=middle;whiteSpace=wrap;rounded=0;" vertex="1" parent="1">
          <mxGeometry x="485" y="345" width="110" height="63" as="geometry" />
        </mxCell>
        <mxCell id="I27MwGRCCeynss-tv7QH-58" value="&lt;h3&gt;&lt;font style=&quot;font-size: 24px; background-color: rgb(0, 0, 0);&quot; color=&quot;#ffffff&quot;&gt;r3&lt;/font&gt;&lt;/h3&gt;" style="text;html=1;align=center;verticalAlign=middle;whiteSpace=wrap;rounded=0;" vertex="1" parent="1">
          <mxGeometry x="674" y="345" width="110" height="63" as="geometry" />
        </mxCell>
        <mxCell id="I27MwGRCCeynss-tv7QH-59" value="&lt;h3&gt;&lt;font style=&quot;font-size: 24px; background-color: rgb(0, 0, 0);&quot; color=&quot;#ffffff&quot;&gt;rc&lt;/font&gt;&lt;/h3&gt;" style="text;html=1;align=center;verticalAlign=middle;whiteSpace=wrap;rounded=0;" vertex="1" parent="1">
          <mxGeometry x="584" y="214" width="110" height="63" as="geometry" />
        </mxCell>
        <mxCell id="I27MwGRCCeynss-tv7QH-60" value="&lt;h3&gt;&lt;font style=&quot;font-size: 24px; background-color: rgb(0, 0, 0);&quot; color=&quot;#ffffff&quot;&gt;ru&lt;/font&gt;&lt;/h3&gt;" style="text;html=1;align=center;verticalAlign=middle;whiteSpace=wrap;rounded=0;" vertex="1" parent="1">
          <mxGeometry x="796" y="486.5" width="110" height="63" as="geometry" />
        </mxCell>
        <mxCell id="I27MwGRCCeynss-tv7QH-61" value="&lt;h3&gt;&lt;font style=&quot;font-size: 24px; background-color: rgb(0, 0, 0);&quot; color=&quot;#ffffff&quot;&gt;r5&lt;/font&gt;&lt;/h3&gt;" style="text;html=1;align=center;verticalAlign=middle;whiteSpace=wrap;rounded=0;" vertex="1" parent="1">
          <mxGeometry x="485" y="486.5" width="110" height="63" as="geometry" />
        </mxCell>
        <mxCell id="I27MwGRCCeynss-tv7QH-62" value="&lt;h3&gt;&lt;font style=&quot;font-size: 24px; background-color: rgb(0, 0, 0);&quot; color=&quot;#ffffff&quot;&gt;r6&lt;/font&gt;&lt;/h3&gt;" style="text;html=1;align=center;verticalAlign=middle;whiteSpace=wrap;rounded=0;" vertex="1" parent="1">
          <mxGeometry x="485" y="625" width="110" height="63" as="geometry" />
        </mxCell>
        <mxCell id="I27MwGRCCeynss-tv7QH-63" value="&lt;h3&gt;&lt;font style=&quot;font-size: 24px; background-color: rgb(0, 0, 0);&quot; color=&quot;#ffffff&quot;&gt;r7&lt;/font&gt;&lt;/h3&gt;" style="text;html=1;align=center;verticalAlign=middle;whiteSpace=wrap;rounded=0;" vertex="1" parent="1">
          <mxGeometry x="672" y="625" width="110" height="63" as="geometry" />
        </mxCell>
        <mxCell id="1I2WtKxNSLCedIirLF0q-2" value="" style="shape=mxgraph.cisco.computers_and_peripherals.terminal;sketch=0;html=1;pointerEvents=1;dashed=0;fillColor=#036897;strokeColor=#ffffff;strokeWidth=2;verticalLabelPosition=bottom;verticalAlign=top;align=center;outlineConnect=0;" vertex="1" parent="1">
          <mxGeometry x="-130" y="391.5" width="90" height="78" as="geometry" />
        </mxCell>
        <mxCell id="1I2WtKxNSLCedIirLF0q-9" value="" style="shape=mxgraph.cisco.routers.router;html=1;dashed=0;fillColor=#036897;strokeColor=#ffffff;strokeWidth=2;verticalLabelPosition=bottom;verticalAlign=top;rounded=0;shadow=0;comic=0;fontFamily=Verdana;fontSize=12;" vertex="1" parent="1">
          <mxGeometry x="46" y="492" width="78" height="53" as="geometry" />
        </mxCell>
        <mxCell id="1I2WtKxNSLCedIirLF0q-10" value="&lt;div&gt;&lt;font&gt;eth2&lt;/font&gt;&lt;/div&gt;" style="text;html=1;align=center;verticalAlign=middle;whiteSpace=wrap;rounded=0;" vertex="1" parent="1">
          <mxGeometry x="110" y="492" width="60" height="30" as="geometry" />
        </mxCell>
        <mxCell id="1I2WtKxNSLCedIirLF0q-11" style="edgeStyle=none;html=1;labelBackgroundColor=none;startFill=0;endArrow=none;endFill=0;strokeWidth=2;fontFamily=Verdana;fontSize=12;exitX=0;exitY=0.5;exitDx=0;exitDy=0;exitPerimeter=0;" edge="1" parent="1" source="1I2WtKxNSLCedIirLF0q-9" target="P0-c6NR_3_v5P01_Kzta-24">
          <mxGeometry relative="1" as="geometry">
            <mxPoint x="50" y="560" as="sourcePoint" />
            <mxPoint x="-30" y="519" as="targetPoint" />
          </mxGeometry>
        </mxCell>
        <mxCell id="1I2WtKxNSLCedIirLF0q-12" style="edgeStyle=none;html=1;labelBackgroundColor=none;startFill=0;endArrow=none;endFill=0;strokeWidth=2;fontFamily=Verdana;fontSize=12;" edge="1" parent="1">
          <mxGeometry relative="1" as="geometry">
            <mxPoint x="-10" y="430" as="sourcePoint" />
            <mxPoint x="-10" y="600" as="targetPoint" />
          </mxGeometry>
        </mxCell>
        <mxCell id="1I2WtKxNSLCedIirLF0q-13" style="edgeStyle=none;html=1;labelBackgroundColor=none;startFill=0;endArrow=none;endFill=0;strokeWidth=2;fontFamily=Verdana;fontSize=12;" edge="1" parent="1" target="1I2WtKxNSLCedIirLF0q-2">
          <mxGeometry relative="1" as="geometry">
            <mxPoint x="-10" y="430" as="sourcePoint" />
            <mxPoint x="-40" y="418.5" as="targetPoint" />
          </mxGeometry>
        </mxCell>
        <mxCell id="1I2WtKxNSLCedIirLF0q-14" value="" style="shape=mxgraph.cisco.computers_and_peripherals.terminal;sketch=0;html=1;pointerEvents=1;dashed=0;fillColor=#036897;strokeColor=#ffffff;strokeWidth=2;verticalLabelPosition=bottom;verticalAlign=top;align=center;outlineConnect=0;" vertex="1" parent="1">
          <mxGeometry x="-130" y="567" width="90" height="78" as="geometry" />
        </mxCell>
        <mxCell id="1I2WtKxNSLCedIirLF0q-16" style="edgeStyle=none;html=1;labelBackgroundColor=none;startFill=0;endArrow=none;endFill=0;strokeWidth=2;fontFamily=Verdana;fontSize=12;" edge="1" parent="1">
          <mxGeometry relative="1" as="geometry">
            <mxPoint x="-10" y="598.36" as="sourcePoint" />
            <mxPoint x="-40" y="598.36" as="targetPoint" />
          </mxGeometry>
        </mxCell>
        <mxCell id="1I2WtKxNSLCedIirLF0q-17" value="" style="shape=mxgraph.cisco.routers.router;html=1;dashed=0;fillColor=#036897;strokeColor=#ffffff;strokeWidth=2;verticalLabelPosition=bottom;verticalAlign=top;rounded=0;shadow=0;comic=0;fontFamily=Verdana;fontSize=12;" vertex="1" parent="1">
          <mxGeometry x="966" y="491.5" width="78" height="53" as="geometry" />
        </mxCell>
        <mxCell id="1I2WtKxNSLCedIirLF0q-19" value="&lt;h3&gt;&lt;font style=&quot;font-size: 24px; background-color: rgb(0, 0, 0);&quot; color=&quot;#ffffff&quot;&gt;rupf&lt;/font&gt;&lt;/h3&gt;" style="text;html=1;align=center;verticalAlign=middle;whiteSpace=wrap;rounded=0;" vertex="1" parent="1">
          <mxGeometry x="950" y="482" width="110" height="63" as="geometry" />
        </mxCell>
        <mxCell id="1I2WtKxNSLCedIirLF0q-20" style="edgeStyle=none;html=1;labelBackgroundColor=none;startFill=0;endArrow=none;endFill=0;strokeWidth=2;fontFamily=Verdana;fontSize=12;entryX=1;entryY=0.5;entryDx=0;entryDy=0;entryPerimeter=0;exitX=0;exitY=0.5;exitDx=0;exitDy=0;exitPerimeter=0;" edge="1" parent="1" source="1I2WtKxNSLCedIirLF0q-17">
          <mxGeometry relative="1" as="geometry">
            <mxPoint x="940" y="518" as="sourcePoint" />
            <mxPoint x="890" y="517.58" as="targetPoint" />
          </mxGeometry>
        </mxCell>
        <mxCell id="1I2WtKxNSLCedIirLF0q-22" style="edgeStyle=none;html=1;labelBackgroundColor=none;startFill=0;endArrow=none;endFill=0;strokeWidth=2;fontFamily=Verdana;fontSize=12;entryX=1;entryY=0.5;entryDx=0;entryDy=0;entryPerimeter=0;" edge="1" parent="1">
          <mxGeometry relative="1" as="geometry">
            <mxPoint x="1100" y="518" as="sourcePoint" />
            <mxPoint x="1044" y="517.7900000000001" as="targetPoint" />
          </mxGeometry>
        </mxCell>
        <mxCell id="1I2WtKxNSLCedIirLF0q-26" value="" style="shape=mxgraph.cisco.routers.router;html=1;dashed=0;fillColor=#036897;strokeColor=#ffffff;strokeWidth=2;verticalLabelPosition=bottom;verticalAlign=top;rounded=0;shadow=0;comic=0;fontFamily=Verdana;fontSize=12;" vertex="1" parent="1">
          <mxGeometry x="600" y="65" width="78" height="53" as="geometry" />
        </mxCell>
        <mxCell id="1I2WtKxNSLCedIirLF0q-27" style="edgeStyle=none;html=1;labelBackgroundColor=none;startFill=0;endArrow=none;endFill=0;strokeWidth=2;fontFamily=Verdana;fontSize=12;exitX=0.5;exitY=0;exitDx=0;exitDy=0;exitPerimeter=0;" edge="1" parent="1" source="1I2WtKxNSLCedIirLF0q-26">
          <mxGeometry relative="1" as="geometry">
            <mxPoint x="640.72" y="65" as="sourcePoint" />
            <mxPoint x="640" y="-10" as="targetPoint" />
          </mxGeometry>
        </mxCell>
        <mxCell id="1I2WtKxNSLCedIirLF0q-28" style="edgeStyle=none;html=1;labelBackgroundColor=none;startFill=0;endArrow=none;endFill=0;strokeWidth=2;fontFamily=Verdana;fontSize=12;" edge="1" parent="1">
          <mxGeometry relative="1" as="geometry">
            <mxPoint x="729.72" y="24" as="sourcePoint" />
            <mxPoint x="559.72" y="24" as="targetPoint" />
          </mxGeometry>
        </mxCell>
        <mxCell id="1I2WtKxNSLCedIirLF0q-29" style="edgeStyle=none;html=1;labelBackgroundColor=none;startFill=0;endArrow=none;endFill=0;strokeWidth=2;fontFamily=Verdana;fontSize=12;" edge="1" parent="1">
          <mxGeometry relative="1" as="geometry">
            <mxPoint x="729.72" y="24" as="sourcePoint" />
            <mxPoint x="729.72" y="-3" as="targetPoint" />
          </mxGeometry>
        </mxCell>
        <mxCell id="1I2WtKxNSLCedIirLF0q-31" style="edgeStyle=none;html=1;labelBackgroundColor=none;startFill=0;endArrow=none;endFill=0;strokeWidth=2;fontFamily=Verdana;fontSize=12;" edge="1" parent="1">
          <mxGeometry relative="1" as="geometry">
            <mxPoint x="560.72" y="24" as="sourcePoint" />
            <mxPoint x="560.72" y="-6" as="targetPoint" />
          </mxGeometry>
        </mxCell>
        <mxCell id="1I2WtKxNSLCedIirLF0q-30" value="" style="shape=mxgraph.cisco.computers_and_peripherals.terminal;sketch=0;html=1;pointerEvents=1;dashed=0;fillColor=#036897;strokeColor=#ffffff;strokeWidth=2;verticalLabelPosition=bottom;verticalAlign=top;align=center;outlineConnect=0;" vertex="1" parent="1">
          <mxGeometry x="510" y="-78" width="90" height="78" as="geometry" />
        </mxCell>
        <mxCell id="1I2WtKxNSLCedIirLF0q-35" value="" style="shape=mxgraph.cisco.computers_and_peripherals.terminal;sketch=0;html=1;pointerEvents=1;dashed=0;fillColor=#036897;strokeColor=#ffffff;strokeWidth=2;verticalLabelPosition=bottom;verticalAlign=top;align=center;outlineConnect=0;" vertex="1" parent="1">
          <mxGeometry x="594" y="-78" width="90" height="78" as="geometry" />
        </mxCell>
        <mxCell id="1I2WtKxNSLCedIirLF0q-36" value="" style="shape=mxgraph.cisco.computers_and_peripherals.terminal;sketch=0;html=1;pointerEvents=1;dashed=0;fillColor=#036897;strokeColor=#ffffff;strokeWidth=2;verticalLabelPosition=bottom;verticalAlign=top;align=center;outlineConnect=0;" vertex="1" parent="1">
          <mxGeometry x="682" y="-78" width="90" height="78" as="geometry" />
        </mxCell>
        <mxCell id="I27MwGRCCeynss-tv7QH-53" value="&lt;h3&gt;&lt;font style=&quot;background-color: rgb(0, 0, 0); font-size: 19px;&quot; color=&quot;#ffffff&quot;&gt;rcpd&lt;/font&gt;&lt;/h3&gt;" style="text;html=1;align=center;verticalAlign=middle;whiteSpace=wrap;rounded=0;" vertex="1" parent="1">
          <mxGeometry x="584" y="55" width="110" height="63" as="geometry" />
        </mxCell>
        <mxCell id="1I2WtKxNSLCedIirLF0q-37" value="&lt;h3&gt;&lt;font style=&quot;background-color: rgb(0, 0, 0); font-size: 19px;&quot; color=&quot;#ffffff&quot;&gt;hgnb-h1&lt;/font&gt;&lt;/h3&gt;" style="text;html=1;align=center;verticalAlign=middle;whiteSpace=wrap;rounded=0;" vertex="1" parent="1">
          <mxGeometry x="-120" y="396" width="70" height="58" as="geometry" />
        </mxCell>
        <mxCell id="1I2WtKxNSLCedIirLF0q-38" value="&lt;h3&gt;&lt;font style=&quot;background-color: rgb(0, 0, 0); font-size: 19px;&quot; color=&quot;#ffffff&quot;&gt;hgnb-h2&lt;/font&gt;&lt;/h3&gt;" style="text;html=1;align=center;verticalAlign=middle;whiteSpace=wrap;rounded=0;" vertex="1" parent="1">
          <mxGeometry x="-120" y="487" width="70" height="58" as="geometry" />
        </mxCell>
        <mxCell id="1I2WtKxNSLCedIirLF0q-39" value="&lt;h3&gt;&lt;font style=&quot;background-color: rgb(0, 0, 0); font-size: 19px;&quot; color=&quot;#ffffff&quot;&gt;hgnb-h3&lt;/font&gt;&lt;/h3&gt;" style="text;html=1;align=center;verticalAlign=middle;whiteSpace=wrap;rounded=0;" vertex="1" parent="1">
          <mxGeometry x="-120" y="572" width="70" height="58" as="geometry" />
        </mxCell>
        <mxCell id="1I2WtKxNSLCedIirLF0q-40" value="&lt;h3&gt;&lt;font style=&quot;background-color: rgb(0, 0, 0); font-size: 19px;&quot; color=&quot;#ffffff&quot;&gt;h&lt;/font&gt;&lt;font style=&quot;background-color: rgb(0, 0, 0); font-size: 19px;&quot; color=&quot;#ffffff&quot;&gt;cpd&lt;/font&gt;&lt;font style=&quot;background-color: rgb(0, 0, 0); font-size: 19px;&quot; color=&quot;#ffffff&quot;&gt;-h1&lt;/font&gt;&lt;/h3&gt;" style="text;html=1;align=center;verticalAlign=middle;whiteSpace=wrap;rounded=0;" vertex="1" parent="1">
          <mxGeometry x="520" y="-68" width="70" height="58" as="geometry" />
        </mxCell>
        <mxCell id="1I2WtKxNSLCedIirLF0q-41" value="&lt;h3&gt;&lt;font style=&quot;background-color: rgb(0, 0, 0); font-size: 19px;&quot; color=&quot;#ffffff&quot;&gt;h&lt;/font&gt;&lt;font style=&quot;background-color: rgb(0, 0, 0); font-size: 19px;&quot; color=&quot;#ffffff&quot;&gt;cpd&lt;/font&gt;&lt;font style=&quot;background-color: rgb(0, 0, 0); font-size: 19px;&quot; color=&quot;#ffffff&quot;&gt;-h2&lt;/font&gt;&lt;/h3&gt;" style="text;html=1;align=center;verticalAlign=middle;whiteSpace=wrap;rounded=0;" vertex="1" parent="1">
          <mxGeometry x="608" y="-68" width="70" height="58" as="geometry" />
        </mxCell>
        <mxCell id="1I2WtKxNSLCedIirLF0q-42" value="&lt;h3&gt;&lt;font style=&quot;background-color: rgb(0, 0, 0); font-size: 19px;&quot; color=&quot;#ffffff&quot;&gt;hcpd-h3&lt;/font&gt;&lt;/h3&gt;" style="text;html=1;align=center;verticalAlign=middle;whiteSpace=wrap;rounded=0;" vertex="1" parent="1">
          <mxGeometry x="694" y="-68" width="70" height="58" as="geometry" />
        </mxCell>
        <mxCell id="1I2WtKxNSLCedIirLF0q-43" value="&lt;h3&gt;&lt;font style=&quot;background-color: rgb(0, 0, 0); font-size: 19px;&quot; color=&quot;#ffffff&quot;&gt;rgnb&lt;/font&gt;&lt;/h3&gt;" style="text;html=1;align=center;verticalAlign=middle;whiteSpace=wrap;rounded=0;" vertex="1" parent="1">
          <mxGeometry x="30" y="486.5" width="110" height="63" as="geometry" />
        </mxCell>
        <mxCell id="1I2WtKxNSLCedIirLF0q-44" value="&lt;font&gt;eth2&lt;/font&gt;" style="text;html=1;align=center;verticalAlign=middle;whiteSpace=wrap;rounded=0;" vertex="1" parent="1">
          <mxGeometry x="920" y="495" width="60" height="24" as="geometry" />
        </mxCell>
        <mxCell id="1I2WtKxNSLCedIirLF0q-45" value="&lt;font&gt;eth3&lt;/font&gt;" style="text;html=1;align=center;verticalAlign=middle;whiteSpace=wrap;rounded=0;" vertex="1" parent="1">
          <mxGeometry x="564" y="630" width="60" height="30" as="geometry" />
        </mxCell>
        <mxCell id="1I2WtKxNSLCedIirLF0q-46" value="&lt;font&gt;eth1&lt;/font&gt;" style="text;html=1;align=center;verticalAlign=middle;whiteSpace=wrap;rounded=0;rotation=90;" vertex="1" parent="1">
          <mxGeometry x="615" y="40" width="60" height="30" as="geometry" />
        </mxCell>
        <mxCell id="ZO4QeiZEA-hET0x99T8y-1" value="&lt;font style=&quot;font-size: 15px;&quot;&gt;&lt;span style=&quot;background-color: rgb(179, 179, 179);&quot;&gt;&lt;span style=&quot;color: rgb(255, 255, 255);&quot;&gt;1001&lt;/span&gt;&lt;/span&gt;&lt;/font&gt;" style="text;html=1;align=center;verticalAlign=middle;whiteSpace=wrap;rounded=0;rotation=-55;" vertex="1" parent="1">
          <mxGeometry x="250" y="430" width="60" height="30" as="geometry" />
        </mxCell>
        <mxCell id="ZO4QeiZEA-hET0x99T8y-2" value="&lt;font style=&quot;font-size: 15px;&quot;&gt;&lt;span style=&quot;background-color: rgb(179, 179, 179);&quot;&gt;&lt;span style=&quot;color: rgb(255, 255, 255);&quot;&gt;1002&lt;/span&gt;&lt;/span&gt;&lt;/font&gt;" style="text;html=1;align=center;verticalAlign=middle;whiteSpace=wrap;rounded=0;" vertex="1" parent="1">
          <mxGeometry x="410" y="373" width="60" height="30" as="geometry" />
        </mxCell>
        <mxCell id="ZO4QeiZEA-hET0x99T8y-4" value="&lt;font style=&quot;font-size: 15px;&quot;&gt;&lt;span style=&quot;background-color: rgb(179, 179, 179);&quot;&gt;&lt;span style=&quot;color: rgb(255, 255, 255);&quot;&gt;1003&lt;/span&gt;&lt;/span&gt;&lt;/font&gt;" style="text;html=1;align=center;verticalAlign=middle;whiteSpace=wrap;rounded=0;" vertex="1" parent="1">
          <mxGeometry x="608" y="373" width="60" height="30" as="geometry" />
        </mxCell>
        <mxCell id="ZO4QeiZEA-hET0x99T8y-5" value="&lt;font style=&quot;font-size: 15px;&quot;&gt;&lt;span style=&quot;background-color: rgb(179, 179, 179);&quot;&gt;&lt;span style=&quot;color: rgb(255, 255, 255);&quot;&gt;1004&lt;/span&gt;&lt;/span&gt;&lt;/font&gt;" style="text;html=1;align=center;verticalAlign=middle;whiteSpace=wrap;rounded=0;rotation=60;" vertex="1" parent="1">
          <mxGeometry x="764" y="425" width="60" height="30" as="geometry" />
        </mxCell>
        <mxCell id="ZO4QeiZEA-hET0x99T8y-6" value="&lt;font style=&quot;font-size: 15px;&quot;&gt;&lt;span style=&quot;background-color: rgb(179, 179, 179);&quot;&gt;&lt;span style=&quot;color: rgb(255, 255, 255);&quot;&gt;1005&lt;/span&gt;&lt;/span&gt;&lt;/font&gt;" style="text;html=1;align=center;verticalAlign=middle;whiteSpace=wrap;rounded=0;rotation=60;" vertex="1" parent="1">
          <mxGeometry x="224" y="591" width="60" height="30" as="geometry" />
        </mxCell>
        <mxCell id="ZO4QeiZEA-hET0x99T8y-7" value="&lt;font style=&quot;font-size: 15px;&quot;&gt;&lt;span style=&quot;background-color: rgb(179, 179, 179);&quot;&gt;&lt;span style=&quot;color: rgb(255, 255, 255);&quot;&gt;1006&lt;/span&gt;&lt;/span&gt;&lt;/font&gt;" style="text;html=1;align=center;verticalAlign=middle;whiteSpace=wrap;rounded=0;rotation=0;" vertex="1" parent="1">
          <mxGeometry x="410" y="653" width="60" height="30" as="geometry" />
        </mxCell>
        <mxCell id="ZO4QeiZEA-hET0x99T8y-8" value="&lt;font style=&quot;font-size: 15px;&quot;&gt;&lt;span style=&quot;background-color: rgb(179, 179, 179);&quot;&gt;&lt;span style=&quot;color: rgb(255, 255, 255);&quot;&gt;1007&lt;/span&gt;&lt;/span&gt;&lt;/font&gt;" style="text;html=1;align=center;verticalAlign=middle;whiteSpace=wrap;rounded=0;rotation=0;" vertex="1" parent="1">
          <mxGeometry x="608" y="653" width="60" height="30" as="geometry" />
        </mxCell>
        <mxCell id="ZO4QeiZEA-hET0x99T8y-9" value="&lt;font style=&quot;font-size: 15px;&quot;&gt;&lt;span style=&quot;background-color: rgb(179, 179, 179);&quot;&gt;&lt;span style=&quot;color: rgb(255, 255, 255);&quot;&gt;1008&lt;/span&gt;&lt;/span&gt;&lt;/font&gt;" style="text;html=1;align=center;verticalAlign=middle;whiteSpace=wrap;rounded=0;rotation=-45;" vertex="1" parent="1">
          <mxGeometry x="800" y="590" width="60" height="30" as="geometry" />
        </mxCell>
        <mxCell id="ZO4QeiZEA-hET0x99T8y-10" value="&lt;font style=&quot;font-size: 15px;&quot;&gt;&lt;span style=&quot;background-color: rgb(179, 179, 179);&quot;&gt;&lt;span style=&quot;color: rgb(255, 255, 255);&quot;&gt;1009&lt;/span&gt;&lt;/span&gt;&lt;/font&gt;" style="text;html=1;align=center;verticalAlign=middle;whiteSpace=wrap;rounded=0;rotation=90;" vertex="1" parent="1">
          <mxGeometry x="300" y="498.5" width="60" height="30" as="geometry" />
        </mxCell>
        <mxCell id="ZO4QeiZEA-hET0x99T8y-11" value="&lt;font style=&quot;font-size: 15px;&quot;&gt;&lt;span style=&quot;background-color: rgb(179, 179, 179);&quot;&gt;&lt;span style=&quot;color: rgb(255, 255, 255);&quot;&gt;1010&lt;/span&gt;&lt;/span&gt;&lt;/font&gt;" style="text;html=1;align=center;verticalAlign=middle;whiteSpace=wrap;rounded=0;rotation=90;" vertex="1" parent="1">
          <mxGeometry x="490" y="433" width="60" height="30" as="geometry" />
        </mxCell>
        <mxCell id="ZO4QeiZEA-hET0x99T8y-12" value="&lt;font style=&quot;font-size: 15px;&quot;&gt;&lt;span style=&quot;background-color: rgb(179, 179, 179);&quot;&gt;&lt;span style=&quot;color: rgb(255, 255, 255);&quot;&gt;1011&lt;/span&gt;&lt;/span&gt;&lt;/font&gt;" style="text;html=1;align=center;verticalAlign=middle;whiteSpace=wrap;rounded=0;rotation=90;" vertex="1" parent="1">
          <mxGeometry x="485" y="572" width="60" height="30" as="geometry" />
        </mxCell>
        <mxCell id="ZO4QeiZEA-hET0x99T8y-13" value="&lt;font style=&quot;font-size: 15px;&quot;&gt;&lt;span style=&quot;background-color: rgb(179, 179, 179);&quot;&gt;&lt;span style=&quot;color: rgb(255, 255, 255);&quot;&gt;1012&lt;/span&gt;&lt;/span&gt;&lt;/font&gt;" style="text;html=1;align=center;verticalAlign=middle;whiteSpace=wrap;rounded=0;rotation=90;" vertex="1" parent="1">
          <mxGeometry x="684" y="501" width="60" height="30" as="geometry" />
        </mxCell>
        <mxCell id="ZO4QeiZEA-hET0x99T8y-14" value="&lt;font style=&quot;font-size: 15px;&quot;&gt;&lt;span style=&quot;background-color: rgb(179, 179, 179);&quot;&gt;&lt;span style=&quot;color: rgb(255, 255, 255);&quot;&gt;1013&lt;/span&gt;&lt;/span&gt;&lt;/font&gt;" style="text;html=1;align=center;verticalAlign=middle;whiteSpace=wrap;rounded=0;rotation=-55;" vertex="1" parent="1">
          <mxGeometry x="550" y="290" width="60" height="30" as="geometry" />
        </mxCell>
        <mxCell id="ZO4QeiZEA-hET0x99T8y-15" value="&lt;font style=&quot;font-size: 15px;&quot;&gt;&lt;span style=&quot;background-color: rgb(179, 179, 179);&quot;&gt;&lt;span style=&quot;color: rgb(255, 255, 255);&quot;&gt;1014&lt;/span&gt;&lt;/span&gt;&lt;/font&gt;" style="text;html=1;align=center;verticalAlign=middle;whiteSpace=wrap;rounded=0;rotation=60;" vertex="1" parent="1">
          <mxGeometry x="660" y="290" width="60" height="30" as="geometry" />
        </mxCell>
        <mxCell id="ZO4QeiZEA-hET0x99T8y-16" value="&lt;font style=&quot;font-size: 15px;&quot;&gt;&lt;span style=&quot;background-color: rgb(179, 179, 179);&quot;&gt;&lt;span style=&quot;color: rgb(255, 255, 255);&quot;&gt;2005&lt;/span&gt;&lt;/span&gt;&lt;/font&gt;" style="text;html=1;align=center;verticalAlign=middle;whiteSpace=wrap;rounded=0;rotation=0;" vertex="1" parent="1">
          <mxGeometry x="130" y="515" width="60" height="30" as="geometry" />
        </mxCell>
        <mxCell id="ZO4QeiZEA-hET0x99T8y-17" value="&lt;font style=&quot;font-size: 15px;&quot;&gt;&lt;span style=&quot;background-color: rgb(179, 179, 179);&quot;&gt;&lt;span style=&quot;color: rgb(255, 255, 255);&quot;&gt;2002&lt;/span&gt;&lt;/span&gt;&lt;/font&gt;" style="text;html=1;align=center;verticalAlign=middle;whiteSpace=wrap;rounded=0;rotation=0;" vertex="1" parent="1">
          <mxGeometry x="-14" y="515" width="60" height="30" as="geometry" />
        </mxCell>
        <mxCell id="ZO4QeiZEA-hET0x99T8y-18" value="&lt;font style=&quot;font-size: 15px;&quot;&gt;&lt;span style=&quot;background-color: rgb(179, 179, 179);&quot;&gt;&lt;span style=&quot;color: rgb(255, 255, 255);&quot;&gt;2004&lt;/span&gt;&lt;/span&gt;&lt;/font&gt;" style="text;html=1;align=center;verticalAlign=middle;whiteSpace=wrap;rounded=0;rotation=0;" vertex="1" parent="1">
          <mxGeometry x="890" y="514.5" width="60" height="30" as="geometry" />
        </mxCell>
        <mxCell id="ZO4QeiZEA-hET0x99T8y-19" value="&lt;font style=&quot;font-size: 15px;&quot;&gt;&lt;span style=&quot;background-color: rgb(179, 179, 179);&quot;&gt;&lt;span style=&quot;color: rgb(255, 255, 255);&quot;&gt;2001&lt;/span&gt;&lt;/span&gt;&lt;/font&gt;" style="text;html=1;align=center;verticalAlign=middle;whiteSpace=wrap;rounded=0;rotation=0;" vertex="1" parent="1">
          <mxGeometry x="1040" y="514.5" width="60" height="30" as="geometry" />
        </mxCell>
        <mxCell id="ZO4QeiZEA-hET0x99T8y-20" value="&lt;font style=&quot;font-size: 15px;&quot;&gt;&lt;span style=&quot;background-color: rgb(179, 179, 179);&quot;&gt;&lt;span style=&quot;color: rgb(255, 255, 255);&quot;&gt;2003&lt;/span&gt;&lt;/span&gt;&lt;/font&gt;" style="text;html=1;align=center;verticalAlign=middle;whiteSpace=wrap;rounded=0;rotation=90;" vertex="1" parent="1">
          <mxGeometry x="595" y="32" width="60" height="30" as="geometry" />
        </mxCell>
        <mxCell id="ZO4QeiZEA-hET0x99T8y-21" value="&lt;font style=&quot;font-size: 15px;&quot;&gt;&lt;span style=&quot;background-color: rgb(179, 179, 179);&quot;&gt;&lt;span style=&quot;color: rgb(255, 255, 255);&quot;&gt;2006&lt;/span&gt;&lt;/span&gt;&lt;/font&gt;" style="text;html=1;align=center;verticalAlign=middle;whiteSpace=wrap;rounded=0;rotation=90;" vertex="1" parent="1">
          <mxGeometry x="595" y="159" width="60" height="30" as="geometry" />
        </mxCell>
      </root>
    </mxGraphModel>
  </diagram>
</mxfile>
